<svg width="1287" height="215" viewBox="0 0 1287 215" fill="none" xmlns="http://www.w3.org/2000/svg">
<rect x="803.545" y="143.983" width="140.124" height="69.5696" fill="#0092A8"/>
<path d="M262.838 86.833L364.467 111.451V214.711H262.838V86.833Z" fill="#FFE36F"/>
<path d="M276.338 121.286H306.118V212.934H276.338M276.338 121.286V103.924L257.435 96.2916M276.338 121.286V212.934M228.904 140.439V121.823M228.904 140.439H213.746M228.904 140.439H242.991V212.934M185.571 140.439V121.823M185.571 140.439H213.746M185.571 140.439V160.398M185.571 199.33H178.973V212.934H213.746M185.571 199.33H213.746M185.571 199.33V180.356M276.338 212.934H257.435M228.904 99.2694V84.7712L257.435 96.2916M228.904 99.2694V110.367M228.904 99.2694H212.944M196.984 110.367V99.2694H212.944M196.984 110.367H185.571V121.823M196.984 110.367H228.904M228.904 110.367V121.823M212.944 99.2694V87.4553M228.904 121.823H185.571M213.746 140.439V160.398M213.746 212.934V199.33M213.746 212.934H242.991M213.746 199.33V180.356M185.571 180.356H213.746M185.571 180.356V160.398M213.746 180.356V160.398M213.746 160.398H185.571M242.991 212.934H257.435M257.435 212.934V96.2916" stroke="#1D6D6D" stroke-width="3"/>
<path d="M233.037 194.791V199.837" stroke="#FFE36F" stroke-width="3" stroke-linecap="round" stroke-linejoin="round"/>
<path d="M233.037 179.871V184.916" stroke="#1D6D6D" stroke-width="3" stroke-linecap="round" stroke-linejoin="round"/>
<path d="M232.99 149.389V154.434" stroke="#1D6D6D" stroke-width="3" stroke-linecap="round" stroke-linejoin="round"/>
<path d="M232.99 164.63V169.676" stroke="#1D6D6D" stroke-width="3" stroke-linecap="round" stroke-linejoin="round"/>
<path d="M223.637 194.791V199.837" stroke="#1D6D6D" stroke-width="3" stroke-linecap="round" stroke-linejoin="round"/>
<path d="M223.637 179.871V184.916" stroke="#FFE36F" stroke-width="3" stroke-linecap="round" stroke-linejoin="round"/>
<path d="M223.592 149.389V154.435" stroke="#FFE36F" stroke-width="3" stroke-linecap="round" stroke-linejoin="round"/>
<path d="M223.59 164.63V169.676" stroke="#1D6D6D" stroke-width="3" stroke-linecap="round" stroke-linejoin="round"/>
<path d="M277.051 143.545H297.407" stroke="#1D6D6D" stroke-width="3" stroke-linecap="round" stroke-linejoin="round"/>
<path d="M277.051 153.294H297.407" stroke="#1D6D6D" stroke-width="3" stroke-linecap="round" stroke-linejoin="round"/>
<path d="M277.051 163.042H297.407" stroke="#1D6D6D" stroke-width="3" stroke-linecap="round" stroke-linejoin="round"/>
<path d="M277.051 172.791H297.407" stroke="#1D6D6D" stroke-width="3" stroke-linecap="round" stroke-linejoin="round"/>
<path d="M277.051 182.539H297.407" stroke="#1D6D6D" stroke-width="3" stroke-linecap="round" stroke-linejoin="round"/>
<path d="M277.051 192.288H297.407" stroke="#1D6D6D" stroke-width="3" stroke-linecap="round" stroke-linejoin="round"/>
<path d="M778.836 176.594C778.836 183.632 772.839 184.897 764.905 184.897C756.971 184.897 750.975 183.632 750.975 176.594C750.975 169.555 756.971 156.93 764.905 156.93C772.839 156.93 778.836 169.555 778.836 176.594Z" fill="#0092A8"/>
<path d="M784.495 193.199C784.495 200.238 772.839 205.872 764.905 205.872C754.022 207.62 746.186 197.179 746.186 190.141C746.186 183.102 756.971 177.905 764.905 177.905C772.839 177.905 784.495 186.161 784.495 193.199Z" fill="#0092A8"/>
<path d="M905.252 212.9V162.646L936.364 150.848H949.527L1010.15 209.404V212.9H905.252Z" fill="#F39800"/>
<path d="M967.504 119.385V97.0988H1001.02L1002.33 125.503L967.504 119.385Z" fill="#FFE36F"/>
<path d="M924.842 115.015L961.458 116.326L991.658 123.318H1010.15V212.9L949.697 150.499L925.974 153.033L924.842 115.015Z" fill="#FFE36F"/>
<path d="M895.619 165.96C895.066 165.96 894.536 165.613 894.352 165.034C894.121 164.317 894.49 163.554 895.204 163.322L952.496 144.052C952.934 143.913 953.395 143.983 953.741 144.26L978.768 163.53C979.367 163.993 979.46 164.826 979.022 165.427C978.561 166.029 977.731 166.145 977.132 165.682L952.68 146.851L896.08 165.89C895.896 165.936 895.757 165.96 895.619 165.96Z" fill="#1D6D6D"/>
<path d="M975.519 195.895C975.311 195.895 975.104 195.848 974.896 195.733L961.023 188.399L947.149 195.733C946.481 196.08 945.674 195.825 945.329 195.177C944.983 194.507 945.237 193.697 945.882 193.35L960.378 185.693C960.769 185.484 961.23 185.484 961.622 185.693L976.118 193.35C976.763 193.697 977.017 194.507 976.671 195.177C976.486 195.64 976.003 195.895 975.519 195.895Z" fill="#1D6D6D"/>
<path d="M912.397 175.907C911.66 175.907 911.061 175.306 911.061 174.566V170.008C911.061 169.268 911.66 168.666 912.397 168.666C913.135 168.666 913.734 169.268 913.734 170.008V174.566C913.734 175.306 913.135 175.907 912.397 175.907Z" fill="#1D6D6D"/>
<path d="M921.153 175.907C920.416 175.907 919.816 175.306 919.816 174.566V170.008C919.816 169.268 920.416 168.666 921.153 168.666C921.89 168.666 922.49 169.268 922.49 170.008V174.566C922.49 175.306 921.89 175.907 921.153 175.907Z" fill="#1D6D6D"/>
<path d="M912.397 188.561C911.66 188.561 911.061 187.96 911.061 187.219V182.662C911.061 181.922 911.66 181.32 912.397 181.32C913.135 181.32 913.734 181.922 913.734 182.662V187.219C913.734 187.96 913.135 188.561 912.397 188.561Z" fill="#1D6D6D"/>
<path d="M921.153 188.561C920.416 188.561 919.816 187.96 919.816 187.219V182.662C919.816 181.922 920.416 181.32 921.153 181.32C921.89 181.32 922.49 181.922 922.49 182.662V187.219C922.49 187.96 921.89 188.561 921.153 188.561Z" fill="#D863A1"/>
<path d="M966.509 214.54C965.771 214.54 965.172 213.939 965.172 213.198V189.764C965.172 189.024 965.771 188.422 966.509 188.422C967.246 188.422 967.845 189.024 967.845 189.764V213.198C967.845 213.939 967.246 214.54 966.509 214.54Z" fill="#1D6D6D"/>
<path d="M961.024 214.54C960.287 214.54 959.688 213.939 959.688 213.198V188.168C959.688 187.427 960.287 186.826 961.024 186.826C961.762 186.826 962.361 187.427 962.361 188.168V213.198C962.384 213.939 961.785 214.54 961.024 214.54Z" fill="#1D6D6D"/>
<path d="M955.561 214.54C954.824 214.54 954.225 213.939 954.225 213.198V189.764C954.225 189.024 954.824 188.422 955.561 188.422C956.299 188.422 956.898 189.024 956.898 189.764V213.198C956.898 213.939 956.299 214.54 955.561 214.54Z" fill="#1D6D6D"/>
<path d="M950.1 214.54C949.363 214.54 948.764 213.939 948.764 213.199V193.327C948.764 192.586 949.363 191.985 950.1 191.985C950.838 191.985 951.437 192.586 951.437 193.327V213.199C951.437 213.939 950.838 214.54 950.1 214.54Z" fill="#1D6D6D"/>
<path d="M971.532 214.54C970.795 214.54 970.195 213.939 970.195 213.198V160.685C970.195 159.945 970.795 159.343 971.532 159.343C972.269 159.343 972.868 159.945 972.868 160.685V213.198C972.868 213.939 972.269 214.54 971.532 214.54Z" fill="#1D6D6D"/>
<path d="M777.177 182.408C777.061 182.408 776.969 182.385 776.854 182.362C776.14 182.177 775.702 181.483 775.886 180.766L775.909 180.696C776.255 179.401 777.038 176.324 776.67 174.959C774.25 165.336 769.687 159.136 765.009 159.136C760.284 159.136 755.491 165.636 753.347 174.936C752.933 176.764 753.071 178.591 753.762 180.372C754.039 181.066 753.693 181.853 753.002 182.131C752.31 182.408 751.527 182.061 751.25 181.367C750.351 179.077 750.19 176.694 750.72 174.335C752.633 166.076 757.496 156.452 765.009 156.452C772.222 156.452 777.107 165.683 779.274 174.311C779.781 176.37 778.951 179.632 778.49 181.39C778.352 181.969 777.799 182.408 777.177 182.408Z" fill="#1D6D6D"/>
<path d="M764.985 208.965C758.071 208.965 750.028 204.801 746.249 199.272C744.013 196.01 743.46 192.61 744.659 189.487L745.189 188.052C746.41 184.791 747.079 182.986 750.305 180.094C750.858 179.609 751.711 179.655 752.195 180.21C752.679 180.765 752.633 181.621 752.08 182.107C749.337 184.536 748.853 185.855 747.678 189.001L747.125 190.458C746.042 193.327 747.24 196.01 748.438 197.746C751.711 202.511 758.97 206.259 764.962 206.259C771.115 206.259 778.49 202.442 781.716 197.56C782.846 195.849 783.952 193.234 782.8 190.481C780.887 185.855 780.195 185.114 776.347 182.153C775.747 181.691 775.655 180.858 776.093 180.256C776.554 179.678 777.384 179.562 777.983 180.002C782.131 183.194 783.145 184.282 785.288 189.44C786.556 192.494 786.095 195.825 783.952 199.064C780.218 204.709 772.06 208.965 764.985 208.965Z" fill="#1D6D6D"/>
<path d="M765.009 180.488C764.778 180.488 764.525 180.419 764.317 180.303L752.403 173.108C751.757 172.715 751.573 171.906 751.942 171.258C752.334 170.61 753.14 170.402 753.786 170.795L765.7 177.99C766.345 178.383 766.53 179.193 766.161 179.84C765.908 180.257 765.47 180.488 765.009 180.488Z" fill="#1D6D6D"/>
<path d="M769.456 167.903C769.041 167.903 768.626 167.718 768.373 167.348C767.935 166.746 768.073 165.913 768.65 165.474L769.479 164.849C770.078 164.41 770.908 164.525 771.369 165.127C771.807 165.728 771.668 166.561 771.092 167.001L770.263 167.625C770.009 167.834 769.733 167.903 769.456 167.903Z" fill="#D863A1"/>
<path d="M765.675 175.838C765.237 175.838 764.823 175.63 764.546 175.237C764.131 174.612 764.293 173.779 764.915 173.363L770.515 169.615C771.137 169.199 771.967 169.361 772.382 169.985C772.796 170.61 772.635 171.443 772.013 171.859L766.413 175.607C766.182 175.769 765.929 175.838 765.675 175.838Z" fill="#1D6D6D"/>
<path d="M765.675 195.201C765.237 195.201 764.823 194.993 764.546 194.599C764.131 193.975 764.293 193.142 764.915 192.726L770.515 188.978C771.137 188.561 771.967 188.723 772.382 189.348C772.796 189.973 772.635 190.805 772.013 191.222L766.413 194.97C766.205 195.132 765.929 195.201 765.675 195.201Z" fill="#1D6D6D"/>
<path d="M763.924 205.704C763.694 205.704 763.463 205.635 763.256 205.519L754.314 200.291C753.669 199.921 753.462 199.088 753.83 198.44C754.199 197.792 755.029 197.584 755.674 197.954L764.616 203.183C765.261 203.553 765.468 204.385 765.1 205.033C764.823 205.473 764.385 205.704 763.924 205.704Z" fill="#1D6D6D"/>
<path d="M750.697 197.676C750.42 197.676 750.144 197.584 749.89 197.422L749.061 196.797C748.461 196.358 748.323 195.502 748.784 194.924C749.222 194.322 750.075 194.183 750.674 194.646L751.504 195.271C752.103 195.71 752.241 196.566 751.78 197.144C751.527 197.491 751.112 197.676 750.697 197.676Z" fill="#D863A1"/>
<path d="M765.01 213.985C764.273 213.985 763.674 213.384 763.674 212.644V159.853C763.674 159.112 764.273 158.511 765.01 158.511C765.748 158.511 766.347 159.112 766.347 159.853V212.644C766.347 213.361 765.748 213.985 765.01 213.985Z" fill="#F39800"/>
<path d="M765.01 171.142C764.78 171.142 764.549 171.072 764.342 170.957L755.4 165.729C754.755 165.358 754.547 164.526 754.916 163.878C755.285 163.23 756.115 163.022 756.76 163.392L765.702 168.62C766.347 168.99 766.554 169.823 766.186 170.471C765.932 170.887 765.471 171.142 765.01 171.142Z" fill="#F39800"/>
<path d="M765.031 183.218C764.57 183.218 764.132 182.986 763.879 182.57C763.487 181.945 763.694 181.112 764.317 180.719L776.784 172.969C777.407 172.576 778.236 172.761 778.628 173.409C779.02 174.033 778.812 174.866 778.19 175.26L765.722 183.009C765.515 183.148 765.285 183.218 765.031 183.218Z" fill="#F39800"/>
<path d="M765.031 202.511C764.57 202.511 764.132 202.28 763.879 201.863C763.487 201.239 763.694 200.406 764.317 200.012L782.477 188.723C783.099 188.33 783.929 188.515 784.32 189.163C784.712 189.787 784.505 190.62 783.882 191.013L765.722 202.303C765.515 202.442 765.285 202.511 765.031 202.511Z" fill="#F39800"/>
<path d="M765.009 189.949C764.778 189.949 764.525 189.88 764.317 189.764L752.403 182.57C751.757 182.177 751.573 181.367 751.942 180.719C752.334 180.071 753.14 179.863 753.786 180.256L765.7 187.451C766.345 187.844 766.53 188.654 766.161 189.302C765.908 189.718 765.47 189.949 765.009 189.949Z" fill="#F39800"/>
<path d="M926.155 155.896C925.418 155.896 924.818 155.295 924.818 154.554V116.43C924.818 115.69 925.418 115.088 926.155 115.088H966.877C967.614 115.088 968.213 115.69 968.213 116.43C968.213 117.17 967.614 117.772 966.877 117.772H927.515V154.554C927.515 155.295 926.892 155.896 926.155 155.896Z" fill="#1D6D6D"/>
<path d="M934.473 129.963C933.736 129.963 933.137 129.362 933.137 128.622V124.064C933.137 123.324 933.736 122.723 934.473 122.723C935.211 122.723 935.81 123.324 935.81 124.064V128.622C935.81 129.362 935.211 129.963 934.473 129.963Z" fill="#1D6D6D"/>
<path d="M943.231 129.963C942.494 129.963 941.895 129.362 941.895 128.622V124.064C941.895 123.324 942.494 122.723 943.231 122.723C943.969 122.723 944.568 123.324 944.568 124.064V128.622C944.568 129.362 943.969 129.963 943.231 129.963Z" fill="#1D6D6D"/>
<path d="M934.473 142.641C933.736 142.641 933.137 142.039 933.137 141.299V136.742C933.137 136.001 933.736 135.4 934.473 135.4C935.211 135.4 935.81 136.001 935.81 136.742V141.299C935.81 142.039 935.211 142.641 934.473 142.641Z" fill="#1D6D6D"/>
<path d="M943.231 142.641C942.494 142.641 941.895 142.039 941.895 141.299V136.742C941.895 136.001 942.494 135.4 943.231 135.4C943.969 135.4 944.568 136.001 944.568 136.742V141.299C944.568 142.039 943.969 142.641 943.231 142.641Z" fill="#D863A1"/>
<path d="M1021.56 214.17C1020.83 214.17 1020.23 213.569 1020.23 212.828V125.429H1002.18C1001.44 125.429 1000.85 124.828 1000.85 124.087L1000.55 97.1597H968.212V116.43C968.212 117.17 967.613 117.772 966.876 117.772C966.138 117.772 965.539 117.17 965.539 116.43V95.818C965.539 95.0777 966.138 94.4762 966.876 94.4762H1001.88C1002.62 94.4762 1003.22 95.0777 1003.22 95.818L1003.52 122.746H1021.56C1022.3 122.746 1022.9 123.347 1022.9 124.087V212.828C1022.92 213.569 1022.3 214.17 1021.56 214.17Z" fill="#1D6D6D"/>
<path d="M974.85 109.351C974.113 109.351 973.514 108.75 973.514 108.01V103.452C973.514 102.712 974.113 102.111 974.85 102.111C975.588 102.111 976.187 102.712 976.187 103.452V108.01C976.21 108.75 975.611 109.351 974.85 109.351Z" fill="#1D6D6D"/>
<path d="M983.608 109.351C982.871 109.351 982.271 108.75 982.271 108.01V103.452C982.271 102.712 982.871 102.111 983.608 102.111C984.346 102.111 984.945 102.712 984.945 103.452V108.01C984.968 108.75 984.369 109.351 983.608 109.351Z" fill="#1D6D6D"/>
<path d="M974.85 122.005C974.113 122.005 973.514 121.404 973.514 120.664V116.106C973.514 115.366 974.113 114.764 974.85 114.764C975.588 114.764 976.187 115.366 976.187 116.106V120.664C976.21 121.404 975.611 122.005 974.85 122.005Z" fill="#1D6D6D"/>
<path d="M983.608 122.005C982.871 122.005 982.271 121.404 982.271 120.664V116.106C982.271 115.366 982.871 114.764 983.608 114.764C984.346 114.764 984.945 115.366 984.945 116.106V120.664C984.968 121.404 984.369 122.005 983.608 122.005Z" fill="#1D6D6D"/>
<path d="M974.85 134.683C974.113 134.683 973.514 134.081 973.514 133.341V128.784C973.514 128.043 974.113 127.442 974.85 127.442C975.588 127.442 976.187 128.043 976.187 128.784V133.341C976.21 134.058 975.611 134.683 974.85 134.683Z" fill="#1D6D6D"/>
<path d="M983.608 134.683C982.871 134.683 982.271 134.081 982.271 133.341V128.784C982.271 128.043 982.871 127.442 983.608 127.442C984.346 127.442 984.945 128.043 984.945 128.784V133.341C984.968 134.058 984.369 134.683 983.608 134.683Z" fill="#1D6D6D"/>
<path d="M974.85 146.967C974.113 146.967 973.514 146.365 973.514 145.625V141.068C973.514 140.327 974.113 139.726 974.85 139.726C975.588 139.726 976.187 140.327 976.187 141.068V145.625C976.21 146.365 975.611 146.967 974.85 146.967Z" fill="#1D6D6D"/>
<path d="M983.608 146.967C982.871 146.967 982.271 146.365 982.271 145.625V141.068C982.271 140.327 982.871 139.726 983.608 139.726C984.346 139.726 984.945 140.327 984.945 141.068V145.625C984.968 146.365 984.369 146.967 983.608 146.967Z" fill="#D863A1"/>
<path d="M406.141 104.848V212.736H515.729V53.0193H464.096L460.935 88.982H433.538V104.848H406.141Z" fill="#93BE9C"/>
<path d="M62.5225 40.655H24.8094C16.2505 40.655 9.29492 33.6729 9.29492 25.0813C9.29492 16.4898 16.2505 9.50763 24.8094 9.50763C26.092 9.50763 27.3499 9.68095 28.6325 10.0276C30.9017 4.06056 36.6487 0 43.0616 0C48.5867 0 53.643 2.97114 56.4055 7.67543C58.9461 5.99179 61.8319 5.10045 64.8657 5.10045C73.3012 5.10045 80.1828 11.8845 80.3802 20.3028L81.6381 22.6797C84.8199 26.5421 93.5267 32.8063 93.6007 32.8558C94.242 33.3262 94.39 34.2176 93.946 34.8613C93.4774 35.505 92.5895 35.6536 91.9482 35.2079C91.5782 34.9356 82.8467 28.6714 79.2702 24.2643L77.6916 21.3426C77.593 21.1446 77.519 20.897 77.519 20.6741C77.519 13.6672 71.846 7.9973 64.8904 7.9973C61.9799 7.9973 59.1927 9.0372 56.8495 10.9684C56.5042 11.2655 56.0356 11.3646 55.5916 11.2656C55.1476 11.1665 54.7776 10.8694 54.605 10.4485C52.5824 5.86799 48.044 2.89686 43.0616 2.89686C37.438 2.89686 32.4556 6.73457 30.9263 12.2064C30.8277 12.6026 30.5564 12.9244 30.211 13.0977C29.8411 13.2958 29.4464 13.3206 29.0518 13.172C27.5719 12.6273 26.1659 12.3797 24.7847 12.3797C17.8044 12.3797 12.1561 18.0744 12.1561 25.0566C12.1561 32.0635 17.8291 37.7334 24.7847 37.7334H62.4732C63.2625 37.7334 63.9038 38.3771 63.9038 39.1694C63.9531 40.0113 63.3118 40.655 62.5225 40.655Z" fill="#1D6D6D"/>
<path d="M79.7415 40.8176H69.7274C68.9382 40.8176 68.2969 40.1739 68.2969 39.3816C68.2969 38.5893 68.9382 37.9456 69.7274 37.9456H79.7415C80.5307 37.9456 81.172 38.5893 81.172 39.3816C81.172 40.1739 80.5307 40.8176 79.7415 40.8176Z" fill="#F39800"/>
<path d="M87.7822 40.8176H86.7216C85.9323 40.8176 85.291 40.1739 85.291 39.3816C85.291 38.5893 85.9323 37.9456 86.7216 37.9456H87.7822C88.5715 37.9456 89.2128 38.5893 89.2128 39.3816C89.2375 40.1739 88.5962 40.8176 87.7822 40.8176Z" fill="#D863A1"/>
<path d="M23.5678 37.7328H64.1033C66.5882 35.7061 71.6513 31.2785 72.024 29.7819C72.4899 27.9111 75.2855 23.7019 74.8196 20.4281C74.3536 17.1542 72.024 14.3481 67.8307 12.0096C64.476 10.1389 57.7356 13.4127 54.7848 15.2835C53.8529 14.1922 51.7097 11.6355 50.5915 10.139C46.8641 5.92978 45.0004 5.46209 39.4093 6.39748C34.9364 7.14578 32.2651 12.9452 31.4885 15.7513C31.6438 14.8159 30.2771 12.9452 23.5678 12.9452C4.93079 21.9248 15.8024 33.2118 23.5678 37.7328Z" fill="white"/>
<path d="M754.557 92.1166H779.839C785.577 92.1166 790.24 87.4358 790.24 81.6761C790.24 75.9164 785.577 71.2356 779.839 71.2356C778.98 71.2356 778.136 71.3518 777.276 71.5841C775.755 67.5839 771.902 64.8617 767.603 64.8617C763.899 64.8617 760.509 66.8535 758.657 70.0073C756.954 68.8786 755.02 68.281 752.986 68.281C747.331 68.281 742.717 72.829 742.585 78.4726L741.742 80.066C739.608 82.6554 733.771 86.8549 733.722 86.8881C733.292 87.2034 733.193 87.801 733.49 88.2326C733.804 88.6641 734.4 88.7637 734.83 88.4649C735.078 88.2824 740.931 84.0829 743.329 81.1283L744.387 79.1697C744.453 79.0369 744.503 78.8709 744.503 78.7215C744.503 74.0241 748.306 70.223 752.969 70.223C754.92 70.223 756.789 70.9202 758.36 72.2149C758.591 72.4141 758.905 72.4805 759.203 72.4141C759.501 72.3477 759.749 72.1485 759.864 71.8663C761.22 68.7956 764.263 66.8037 767.603 66.8037C771.373 66.8037 774.713 69.3765 775.739 73.0448C775.805 73.3104 775.987 73.5262 776.218 73.6424C776.466 73.7752 776.731 73.7918 776.995 73.6922C777.987 73.327 778.93 73.161 779.856 73.161C784.535 73.161 788.322 76.9787 788.322 81.6595C788.322 86.3569 784.519 90.158 779.856 90.158H754.59C754.06 90.158 753.631 90.5896 753.631 91.1207C753.597 91.6851 754.027 92.1166 754.557 92.1166Z" fill="#1D6D6D"/>
<path d="M743.013 92.2258H749.726C750.256 92.2258 750.686 91.7943 750.686 91.2631C750.686 90.732 750.256 90.3004 749.726 90.3004H743.013C742.484 90.3004 742.054 90.732 742.054 91.2631C742.054 91.7943 742.484 92.2258 743.013 92.2258Z" fill="#F39800"/>
<path d="M737.623 92.2258H738.334C738.863 92.2258 739.293 91.7943 739.293 91.2631C739.293 90.732 738.863 90.3004 738.334 90.3004H737.623C737.094 90.3004 736.664 90.732 736.664 91.2631C736.647 91.7943 737.077 92.2258 737.623 92.2258Z" fill="#D863A1"/>
<path d="M780.674 90.1577H753.499C751.833 88.799 748.439 85.8307 748.189 84.8274C747.876 83.5732 746.002 80.7514 746.314 78.5566C746.627 76.3618 748.189 74.4806 751 72.9129C753.249 71.6588 757.768 73.8535 759.746 75.1077C760.37 74.3761 761.807 72.6621 762.557 71.6588C765.056 68.837 766.305 68.5234 770.053 69.1505C773.052 69.6522 774.843 73.5401 775.364 75.4213C775.259 74.7942 776.176 73.5401 780.674 73.5401C793.168 79.56 785.879 87.1268 780.674 90.1577Z" fill="white"/>
<rect y="151.287" width="69.2132" height="57.8237" fill="#FDA299"/>
<rect x="123.531" y="84.338" width="90.8182" height="127.519" fill="#F39800"/>
<path d="M97.1177 164.191H79.7754V212.934H97.1177M97.1177 164.191V169.762M97.1177 164.191V155.835M125.559 111.271H97.1177V127.983M125.559 111.271V78.5437H168.568V147.48M125.559 111.271H140.127V127.983M168.568 147.48H198.397V182.992M168.568 147.48H159.55V212.934M198.397 182.992H214.352V212.934H198.397M198.397 182.992V212.934M97.1177 212.934H140.127M97.1177 212.934V197.615M140.127 212.934V197.615M140.127 212.934H159.55M140.127 197.615H97.1177M140.127 197.615V183.688M97.1177 197.615V183.688M97.1177 183.688H140.127M97.1177 183.688V169.762M140.127 183.688V169.762M140.127 169.762H97.1177M140.127 169.762V155.835M97.1177 155.835H140.127M97.1177 155.835V141.909M140.127 155.835V141.909M140.127 141.909H97.1177M140.127 141.909V127.983M97.1177 141.909V127.983M97.1177 127.983H140.127M159.55 212.934H198.397" stroke="#1D6D6D" stroke-width="3" stroke-linejoin="round"/>
<path d="M166.486 155.835H191.459" stroke="#1D6D6D" stroke-width="3" stroke-linecap="round" stroke-linejoin="round"/>
<path d="M166.486 165.584H191.459" stroke="#D863A1" stroke-width="3" stroke-linecap="round" stroke-linejoin="round"/>
<path d="M166.486 175.332H191.459" stroke="#D863A1" stroke-width="3" stroke-linecap="round" stroke-linejoin="round"/>
<path d="M166.486 185.081H191.459" stroke="#1D6D6D" stroke-width="3" stroke-linecap="round" stroke-linejoin="round"/>
<path d="M166.486 194.829H191.459" stroke="#1D6D6D" stroke-width="3" stroke-linecap="round" stroke-linejoin="round"/>
<path d="M166.486 204.578H191.459" stroke="#1D6D6D" stroke-width="3" stroke-linecap="round" stroke-linejoin="round"/>
<path d="M88.0996 171.154V178.118" stroke="#1D6D6D" stroke-width="3" stroke-linecap="round" stroke-linejoin="round"/>
<path d="M147.064 158.621V165.584" stroke="#1D6D6D" stroke-width="3" stroke-linecap="round" stroke-linejoin="round"/>
<path d="M147.064 140.516V147.479" stroke="#1D6D6D" stroke-width="3" stroke-linecap="round" stroke-linejoin="round"/>
<path d="M147.064 122.412V129.375" stroke="#D863A1" stroke-width="3" stroke-linecap="round" stroke-linejoin="round"/>
<path d="M159.549 122.412V129.375" stroke="#1D6D6D" stroke-width="3" stroke-linecap="round" stroke-linejoin="round"/>
<path d="M147.064 104.308V111.271" stroke="#D863A1" stroke-width="3" stroke-linecap="round" stroke-linejoin="round"/>
<path d="M134.576 104.308V111.271" stroke="#1D6D6D" stroke-width="3" stroke-linecap="round" stroke-linejoin="round"/>
<path d="M159.549 104.308V111.271" stroke="#D863A1" stroke-width="3" stroke-linecap="round" stroke-linejoin="round"/>
<path d="M147.064 86.203V93.1662" stroke="#D863A1" stroke-width="3" stroke-linecap="round" stroke-linejoin="round"/>
<path d="M134.576 86.203V93.1662" stroke="#1D6D6D" stroke-width="3" stroke-linecap="round" stroke-linejoin="round"/>
<path d="M159.549 86.203V93.1662" stroke="#D863A1" stroke-width="3" stroke-linecap="round" stroke-linejoin="round"/>
<path d="M88.0996 185.081V192.044" stroke="#1D6D6D" stroke-width="3" stroke-linecap="round" stroke-linejoin="round"/>
<path d="M147.064 178.117V185.081" stroke="#1D6D6D" stroke-width="3" stroke-linecap="round" stroke-linejoin="round"/>
<path d="M88.0996 199.007V205.971" stroke="#1D6D6D" stroke-width="3" stroke-linecap="round" stroke-linejoin="round"/>
<path d="M147.064 194.829V201.793" stroke="#1D6D6D" stroke-width="3" stroke-linecap="round" stroke-linejoin="round"/>
<path d="M206.721 192.044V199.007" stroke="#1D6D6D" stroke-width="3" stroke-linecap="round" stroke-linejoin="round"/>
<rect x="584.59" y="159.09" width="145.435" height="52.7662" fill="#FDA299"/>
<path d="M314.139 180.839V212.736H317.58M314.139 180.839C312.774 179.638 310.834 178.065 311.385 172.518M314.139 180.839C315.052 181.643 317.197 182.193 318.897 182.15C321.023 182.097 326.195 179.8 325.841 172.518M311.385 172.518C314.689 169.744 321.481 163.503 324.464 160.729H336.166M311.385 172.518H325.841M382.976 172.518L369.208 160.729H358.194M382.976 172.518C383.434 174.367 382.976 178.181 380.222 180.839M382.976 172.518H368.52M380.222 180.839C380.222 184.722 380.222 203.722 380.222 212.736H338.92M380.222 180.839C380.222 180.839 378.94 182.632 375.403 182.632C370.276 182.632 368.678 175.889 368.52 172.518M317.58 212.736V208.575H319.645M317.58 212.736H338.92M338.92 212.736V208.575H336.855M336.855 208.575V187.079H319.645V208.575M336.855 208.575H319.645M351.999 189.16L346.492 194.707M358.194 189.853L349.934 198.174M358.194 160.729L368.52 172.518M358.194 160.729H353.72M368.52 172.518H354.064M368.52 172.518C368.877 175.889 368.029 182.632 361.78 182.632C355.531 182.632 354.032 175.889 354.064 172.518M349.245 160.729L354.064 172.518M349.245 160.729H345.115M349.245 160.729H353.72M354.064 172.518H340.297M354.064 172.518C354.064 175.889 352.642 182.632 346.954 182.632C341.266 182.632 340.146 175.889 340.297 172.518M345.115 160.729L340.297 172.518M345.115 160.729H340.641M340.297 172.518H325.841M340.297 172.518C340.426 175.836 339.132 182.504 332.926 182.632C326.719 182.761 325.616 175.943 325.841 172.518M336.166 160.729L325.841 172.518M336.166 160.729H340.641M340.641 160.729C339.344 160.414 336.741 159.002 336.704 155.876C337.218 155.876 338.993 155.876 341.368 155.876M353.72 160.729C356.959 159.896 357.703 157.146 357.67 155.876C356.34 155.876 354.713 155.876 352.959 155.876M341.368 155.876C340.645 155.472 339.161 153.624 339.013 149.456C338.865 145.288 338.952 142.416 339.013 141.502H355.361V143.687M341.368 155.876C344.665 155.876 349.118 155.876 352.959 155.876M352.959 155.876C354.157 154.911 354.793 153.361 355.104 151.952M355.361 143.687V149.456C355.38 150.055 355.321 150.969 355.104 151.952M355.361 143.687H360.348C360.947 145.801 360.735 150.413 355.104 151.952M324.67 195.727V199.028M343.738 187.079V205.802H375.403V187.079H343.738Z" stroke="#1D6D6D" stroke-width="3" stroke-linecap="round" stroke-linejoin="round"/>
<path d="M553.049 212.736H550.907M391.844 212.736H423.085M523.95 212.736L536.625 198.994L550.907 212.736M523.95 212.736H550.907M523.95 212.736H515.738M515.738 212.736H449.863M515.738 212.736V123.408M515.738 89.4064V100.83M515.738 100.83H479.677M515.738 100.83V113.68M515.738 113.68H449.863V101.901V147.056M515.738 113.68V123.408M449.863 212.736V147.056M449.863 212.736H434.154M449.863 147.056H472M472 147.056V107.612M472 147.056L483.247 136.347H493.78V123.408M493.78 110.468V123.408M493.78 123.408H515.738M434.154 212.736H423.085M434.154 212.736V192.39M434.154 79.2338H442.008V74.1836M434.154 79.2338H423.085M434.154 79.2338V95.1185M423.085 79.2338H415.23V74.1836M423.085 79.2338V111.717M423.085 79.2338L434.154 95.1185M423.085 212.736V208.989M423.085 208.989L434.154 192.39M423.085 208.989V178.826M434.154 192.39L423.085 178.826M434.154 192.39V162.227M423.085 178.826L434.154 162.227M423.085 178.826V144.201M434.154 162.227L423.085 144.201M434.154 162.227V127.602M423.085 144.201L434.154 127.602M423.085 144.201V111.717M434.154 127.602L423.085 111.717M434.154 127.602V95.1185M423.085 111.717L434.154 95.1185M415.23 74.1836V62.7939M415.23 74.1836H412.222M415.23 62.7939V55.3167H426.337M415.23 62.7939H396.876M442.008 62.7939V55.3167H426.337M442.008 62.7939V70.3064M442.008 62.7939H447.701M442.008 74.1836V70.3064M442.008 74.1836H463.929M426.337 55.3167V70.3064H442.008M447.701 62.7939L463.929 74.1836M447.701 62.7939H480.569M463.929 74.1836L480.569 62.7939M463.929 74.1836H497.002M480.569 62.7939L497.002 74.1836M480.569 62.7939H513.436M497.002 74.1836L513.436 62.7939M497.002 74.1836H528.637M513.436 62.7939L528.637 74.1836M513.436 62.7939H545.276M528.637 74.1836L545.276 62.7939M528.637 74.1836H539.728M545.276 62.7939H550.818V74.1836H539.728M539.728 74.1836V127.602C537.758 127.932 533.833 129.514 533.887 133.202C533.928 136.078 535.238 137.94 536.812 138.934M545.917 133.202C545.917 136.431 544.949 138.087 543.676 138.934M536.812 138.934C537.762 139.534 538.807 139.818 539.728 139.818C540.93 139.818 542.445 139.753 543.676 138.934M536.812 138.934L529.475 148.772M529.475 148.772V160.265L534.555 166.078H545.917L550.796 160.265V148.772M529.475 148.772H550.796M550.796 148.772L543.676 138.934M396.876 62.7939H393.681V74.1836H412.222M396.876 62.7939L412.222 74.1836" stroke="#1D6D6D" stroke-width="3" stroke-linecap="round" stroke-linejoin="round"/>
<path d="M404.641 205.913C404.641 208.967 402.176 211.433 399.147 211.433C396.119 211.433 393.654 208.967 393.654 205.913C393.654 202.859 396.119 200.394 399.147 200.394C402.176 200.394 404.641 202.859 404.641 205.913Z" stroke="#FFE36F" stroke-width="3"/>
<path d="M417.6 205.913C417.6 208.967 415.135 211.433 412.106 211.433C409.078 211.433 406.613 208.967 406.613 205.913C406.613 202.859 409.078 200.394 412.106 200.394C415.135 200.394 417.6 202.859 417.6 205.913Z" stroke="#FFE36F" stroke-width="3"/>
<path d="M411.714 194.467C411.714 197.82 409.008 200.528 405.681 200.528C402.355 200.528 399.648 197.82 399.648 194.467C399.648 191.114 402.355 188.405 405.681 188.405C409.008 188.405 411.714 191.114 411.714 194.467Z" stroke="#FFE36F" stroke-width="3"/>
<path d="M6.24351 169.761V212.933H71.4505V169.761M6.24351 169.761H3.46875V164.887H6.24351M6.24351 169.761H71.4505M6.24351 164.887V150.264H27.7479M6.24351 164.887H49.9461M27.7479 150.264V143.301H49.9461V150.264M27.7479 150.264V164.191M49.9461 150.264H71.4505V164.887M49.9461 150.264V164.887M71.4505 164.887H74.9189V169.761H71.4505M71.4505 164.887H49.9461M45.0902 212.237V201.096M63.1262 212.237V201.096M63.1262 201.096H45.0902M63.1262 201.096V186.473M45.0902 201.096V186.473M45.0902 186.473V178.117H63.1262V186.473M45.0902 186.473H63.1262" stroke="#1D6D6D" stroke-width="3" stroke-linejoin="round"/>
<path d="M17.3431 196.221H14.5684V202.488H36.0728V196.221H33.9917M17.3431 196.221V178.117H33.9917V196.221M17.3431 196.221H33.9917" stroke="#1D6D6D" stroke-width="3" stroke-linejoin="round"/>
<path d="M36.072 160.013H38.8467H41.6215V156.531H45.0899V151.657H41.6215V147.479H36.072V151.657H32.6035V156.531H36.072V160.013Z" stroke="#1D6D6D" stroke-width="3" stroke-linejoin="round"/>
<path d="M29.8285 185.08L22.8916 192.043M25.6664 182.295L20.8105 187.169" stroke="#1D6D6D" stroke-width="3" stroke-linecap="round" stroke-linejoin="round"/>
<path d="M58.9648 193.436V194.829" stroke="#1D6D6D" stroke-width="3" stroke-linecap="round" stroke-linejoin="round"/>
<path d="M1021.76 169.761V212.933H1086.97V169.761M1021.76 169.761H1018.99V164.887H1021.76M1021.76 169.761H1086.97M1021.76 164.887V150.264H1043.27M1021.76 164.887H1065.47M1043.27 150.264V143.301H1065.47V150.264M1043.27 150.264V164.191M1065.47 150.264H1086.97V164.887M1065.47 150.264V164.887M1086.97 164.887H1090.44V169.761H1086.97M1086.97 164.887H1065.47M1060.61 212.237V201.096M1078.65 212.237V201.096M1078.65 201.096H1060.61M1078.65 201.096V186.473M1060.61 201.096V186.473M1060.61 186.473V178.117H1078.65V186.473M1060.61 186.473H1078.65" stroke="#1D6D6D" stroke-width="3" stroke-linejoin="round"/>
<path d="M1032.86 196.221H1030.09V202.488H1051.59V196.221H1049.51M1032.86 196.221V178.117H1049.51V196.221M1032.86 196.221H1049.51" stroke="#1D6D6D" stroke-width="3" stroke-linejoin="round"/>
<path d="M1051.59 160.013H1054.37H1057.14V156.531H1060.61V151.657H1057.14V147.479H1051.59V151.657H1048.12V156.531H1051.59V160.013Z" stroke="#93BE9C" stroke-width="3" stroke-linejoin="round"/>
<path d="M1045.35 185.08L1038.41 192.043M1041.19 182.295L1036.33 187.169" stroke="#D863A1" stroke-width="3" stroke-linecap="round" stroke-linejoin="round"/>
<path d="M1074.49 193.436V194.829" stroke="#1D6D6D" stroke-width="3" stroke-linecap="round" stroke-linejoin="round"/>
<path d="M605.224 118.654C613.095 116.357 631.002 111.761 639.661 111.761C648.319 111.761 666.063 116.357 673.852 118.654M605.224 118.654V117.177M605.224 118.654V137.856M673.852 118.654V117.177M673.852 118.654V137.856M605.224 140.072C612.685 137.774 630.018 133.179 639.661 133.179C649.303 133.179 666.473 137.774 673.852 140.072M605.224 140.072V137.856M605.224 140.072V159.274M673.852 140.072V137.856M673.852 140.072V159.274M605.224 160.751C612.685 158.043 630.018 152.627 639.661 152.627C649.303 152.627 666.473 158.043 673.852 160.751M605.224 160.751V159.274M605.224 160.751V179.215M673.852 160.751V159.274M673.852 160.751V179.215M621.458 209.987H605.224V205.556M621.458 209.987V185.862M621.458 209.987H639.784M621.458 185.862H616.539V174.291H662.783V185.862H658.109M621.458 185.862H639.784M658.109 185.862V209.987M658.109 185.862H639.784M658.109 209.987H673.852V205.556M658.109 209.987H639.784M639.784 209.987V185.862M605.224 205.556V179.215M605.224 205.556H587.021M605.224 117.177V95.7587C612.931 94.1176 630.609 90.8354 639.661 90.8354C648.713 90.8354 666.227 94.1176 673.852 95.7587V117.177M605.224 117.177H568.818V137.856M568.818 137.856H605.224M568.818 137.856V159.274M568.818 159.274H605.224M568.818 159.274V179.215M568.818 179.215V205.556H587.021M568.818 179.215H587.021M605.224 179.215H587.021M587.021 179.215V205.556M673.852 205.556V179.215M673.852 205.556H694.76M673.852 117.177H710.749V137.856M710.749 137.856H673.852M710.749 137.856V159.274M710.749 159.274H673.852M710.749 159.274V179.215M710.749 179.215V205.556H694.76M710.749 179.215H694.76M673.852 179.215H694.76M694.76 179.215V205.556" stroke="#1D6D6D" stroke-width="3" stroke-linecap="round" stroke-linejoin="round"/>
<rect x="456.322" y="158.632" width="4.27745" height="4.24391" fill="#1D6D6D"/>
<rect x="456.322" y="150.954" width="4.27745" height="4.24385" fill="#1D6D6D"/>
<rect x="456.322" y="167.299" width="4.27745" height="4.24391" fill="#1D6D6D"/>
<rect x="456.322" y="176.086" width="4.27745" height="4.24391" fill="#1D6D6D"/>
<rect x="456.322" y="184.693" width="4.27745" height="4.24385" fill="#1D6D6D"/>
<rect x="456.322" y="193.419" width="4.27745" height="4.24385" fill="#1D6D6D"/>
<rect x="456.322" y="202.208" width="4.27745" height="4.24391" fill="#1D6D6D"/>
<rect x="464.924" y="158.632" width="4.27745" height="4.24391" fill="#1D6D6D"/>
<rect x="464.924" y="150.953" width="4.27745" height="4.24385" fill="#1D6D6D"/>
<rect x="464.924" y="167.299" width="4.27745" height="4.24391" fill="#1D6D6D"/>
<rect x="464.924" y="176.086" width="4.27745" height="4.24391" fill="#1D6D6D"/>
<rect x="464.924" y="184.693" width="4.27745" height="4.24385" fill="#1D6D6D"/>
<rect x="464.924" y="193.419" width="4.27745" height="4.24385" fill="#1D6D6D"/>
<rect x="464.924" y="202.208" width="4.27745" height="4.24391" fill="#1D6D6D"/>
<rect x="473.504" y="158.632" width="4.27751" height="4.24391" fill="#1D6D6D"/>
<rect x="473.504" y="150.953" width="4.27751" height="4.24385" fill="#1D6D6D"/>
<rect x="473.504" y="167.299" width="4.27751" height="4.24391" fill="#1D6D6D"/>
<rect x="473.504" y="176.086" width="4.27751" height="4.24391" fill="#1D6D6D"/>
<rect x="473.504" y="184.693" width="4.27751" height="4.24385" fill="#1D6D6D"/>
<rect x="473.504" y="193.419" width="4.27751" height="4.24385" fill="#1D6D6D"/>
<rect x="473.504" y="202.208" width="4.27751" height="4.24391" fill="#1D6D6D"/>
<rect x="482.234" y="158.64" width="4.27745" height="4.24397" fill="#1D6D6D"/>
<rect x="482.234" y="150.961" width="4.27745" height="4.24385" fill="#1D6D6D"/>
<rect x="482.234" y="143.281" width="4.27745" height="4.24397" fill="#1D6D6D"/>
<rect x="482.234" y="167.308" width="4.27745" height="4.24385" fill="#1D6D6D"/>
<rect x="482.234" y="176.094" width="4.27745" height="4.24385" fill="#1D6D6D"/>
<rect x="482.234" y="184.702" width="4.27745" height="4.24385" fill="#1D6D6D"/>
<rect x="482.234" y="193.428" width="4.27745" height="4.24385" fill="#1D6D6D"/>
<rect x="482.234" y="202.216" width="4.27745" height="4.24391" fill="#1D6D6D"/>
<rect x="490.836" y="158.64" width="4.27745" height="4.24397" fill="#1D6D6D"/>
<rect x="490.836" y="150.961" width="4.27745" height="4.24385" fill="#1D6D6D"/>
<rect x="490.836" y="143.281" width="4.27745" height="4.24397" fill="#1D6D6D"/>
<rect x="490.836" y="167.308" width="4.27745" height="4.24385" fill="#1D6D6D"/>
<rect x="490.836" y="176.094" width="4.27745" height="4.24385" fill="#1D6D6D"/>
<rect x="490.836" y="184.702" width="4.27745" height="4.24385" fill="#1D6D6D"/>
<rect x="490.836" y="193.428" width="4.27745" height="4.24385" fill="#1D6D6D"/>
<rect x="490.836" y="202.216" width="4.27745" height="4.24391" fill="#1D6D6D"/>
<rect x="499.414" y="158.64" width="4.27745" height="4.24397" fill="#1D6D6D"/>
<rect x="499.414" y="150.961" width="4.27745" height="4.24385" fill="#1D6D6D"/>
<rect x="499.414" y="143.281" width="4.27745" height="4.24397" fill="#1D6D6D"/>
<rect x="499.414" y="135.602" width="4.27745" height="4.24385" fill="#1D6D6D"/>
<rect x="499.414" y="127.926" width="4.27745" height="4.24391" fill="#1D6D6D"/>
<rect x="507.285" y="158.64" width="4.27745" height="4.24397" fill="#1D6D6D"/>
<rect x="507.285" y="150.961" width="4.27745" height="4.24385" fill="#1D6D6D"/>
<rect x="507.285" y="143.281" width="4.27745" height="4.24397" fill="#1D6D6D"/>
<rect x="507.285" y="135.602" width="4.27745" height="4.24385" fill="#1D6D6D"/>
<rect x="507.285" y="127.926" width="4.27745" height="4.24391" fill="#1D6D6D"/>
<rect x="499.414" y="167.308" width="4.27745" height="4.24385" fill="#1D6D6D"/>
<rect x="507.285" y="167.308" width="4.27745" height="4.24385" fill="#1D6D6D"/>
<rect x="499.414" y="176.094" width="4.27745" height="4.24385" fill="#1D6D6D"/>
<rect x="507.285" y="176.094" width="4.27745" height="4.24385" fill="#1D6D6D"/>
<rect x="499.414" y="184.702" width="4.27745" height="4.24385" fill="#1D6D6D"/>
<rect x="507.285" y="184.702" width="4.27745" height="4.24385" fill="#1D6D6D"/>
<rect x="499.414" y="193.428" width="4.27745" height="4.24385" fill="#1D6D6D"/>
<rect x="507.285" y="193.428" width="4.27745" height="4.24385" fill="#1D6D6D"/>
<rect x="499.414" y="202.216" width="4.27745" height="4.24391" fill="#1D6D6D"/>
<rect x="507.285" y="202.216" width="4.27745" height="4.24391" fill="#1D6D6D"/>
<path d="M1285.18 179.19C1285.18 187.643 1278.92 194.496 1271.2 194.496C1263.48 194.496 1257.23 187.643 1257.23 179.19C1257.23 170.736 1263.48 160.907 1271.2 160.907C1278.92 160.907 1285.18 170.736 1285.18 179.19Z" fill="#0092A8"/>
<path d="M1249.18 190.67C1249.18 197.518 1243.34 198.748 1235.62 198.748C1227.9 198.748 1222.07 197.518 1222.07 190.67C1222.07 183.821 1227.9 171.537 1235.62 171.537C1243.34 171.537 1249.18 183.821 1249.18 190.67Z" fill="#0092A8"/>
<path d="M1235.6 200.17C1230.44 200.17 1224.14 199.697 1221.25 195.96C1219.77 194.047 1219.38 191.549 1220.15 188.555C1222.5 179.169 1227.79 169.13 1235.62 169.13C1243.74 169.13 1249.03 179.619 1251.09 188.578C1251.79 191.616 1251.38 194.137 1249.86 196.028C1246.92 199.697 1240.69 200.17 1235.6 200.17ZM1235.6 171.741C1230.39 171.741 1225.33 178.584 1222.68 189.185C1222.12 191.391 1222.32 193.079 1223.31 194.34C1225.53 197.198 1231.4 197.536 1235.62 197.536C1239.79 197.536 1245.57 197.221 1247.82 194.385C1248.83 193.102 1249.05 191.414 1248.53 189.14C1246.16 178.899 1240.84 171.741 1235.6 171.741Z" fill="#1D6D6D"/>
<path d="M1235.6 195.128C1235.15 195.128 1234.72 194.903 1234.48 194.497C1234.09 193.867 1234.3 193.079 1234.92 192.697L1247.95 184.819C1248.56 184.459 1249.36 184.639 1249.75 185.269C1250.13 185.899 1249.92 186.687 1249.3 187.07L1236.27 194.948C1236.05 195.06 1235.82 195.128 1235.6 195.128Z" fill="#1D6D6D"/>
<path d="M1230.73 181.375C1230.46 181.375 1230.19 181.285 1229.97 181.127L1229.05 180.452C1228.47 180.024 1228.33 179.214 1228.76 178.629C1229.18 178.044 1230.01 177.909 1230.57 178.336L1231.49 179.012C1232.08 179.439 1232.21 180.249 1231.78 180.835C1231.52 181.172 1231.13 181.375 1230.73 181.375Z" fill="#D863A1"/>
<path d="M1234.85 190.041C1234.61 190.041 1234.36 189.973 1234.14 189.816L1228.02 185.719C1227.41 185.314 1227.25 184.504 1227.66 183.896C1228.06 183.289 1228.87 183.131 1229.47 183.536L1235.59 187.633C1236.2 188.038 1236.36 188.848 1235.95 189.456C1235.68 189.838 1235.28 190.041 1234.85 190.041Z" fill="#1D6D6D"/>
<path d="M1271.04 196.838C1266.76 196.838 1261.58 194.07 1258.44 190.108C1255.68 186.62 1254.68 182.523 1255.57 178.562C1257.64 169.581 1262.93 159.114 1271.04 159.114C1278.85 159.114 1284.16 169.153 1286.52 178.539C1287.48 182.433 1286.54 186.462 1283.85 189.928C1280.69 193.98 1275.42 196.838 1271.04 196.838ZM1256.85 178.832L1258.13 179.124C1257.19 183.176 1258.89 186.44 1260.48 188.443C1263.17 191.819 1267.5 194.182 1271.04 194.182C1274.61 194.182 1279.14 191.707 1281.78 188.285C1283.33 186.282 1284.97 183.086 1283.98 179.147C1281.34 168.545 1276.25 161.703 1271.04 161.703C1265.8 161.703 1260.48 168.86 1258.13 179.124L1256.85 178.832Z" fill="#1D6D6D"/>
<path d="M1271.04 185.112C1270.82 185.112 1270.57 185.044 1270.37 184.932L1257.34 177.054C1256.72 176.671 1256.54 175.883 1256.9 175.253C1257.28 174.623 1258.08 174.443 1258.69 174.803L1271.72 182.681C1272.35 183.064 1272.52 183.851 1272.17 184.482C1271.92 184.887 1271.49 185.112 1271.04 185.112Z" fill="#1D6D6D"/>
<path d="M1275.91 171.336C1275.51 171.336 1275.1 171.156 1274.86 170.796C1274.43 170.211 1274.54 169.401 1275.13 168.973L1276.05 168.298C1276.63 167.87 1277.44 167.983 1277.86 168.568C1278.29 169.153 1278.18 169.963 1277.59 170.391L1276.67 171.066C1276.45 171.269 1276.18 171.336 1275.91 171.336Z" fill="#D863A1"/>
<path d="M1271.79 180.024C1271.36 180.024 1270.96 179.822 1270.69 179.439C1270.28 178.831 1270.44 178.021 1271.05 177.616L1277.17 173.52C1277.75 173.114 1278.58 173.272 1278.98 173.88C1279.39 174.487 1279.23 175.298 1278.62 175.703L1272.5 179.799C1272.28 179.957 1272.03 180.024 1271.79 180.024Z" fill="#1D6D6D"/>
<path d="M1235.6 212.977C1234.88 212.977 1234.3 212.392 1234.3 211.672V172.71C1234.3 171.989 1234.88 171.404 1235.6 171.404C1236.31 171.404 1236.9 171.989 1236.9 172.71V211.672C1236.9 212.392 1236.31 212.977 1235.6 212.977Z" fill="#F39800"/>
<path d="M1235.59 184.909C1235.15 184.909 1234.7 184.684 1234.47 184.256C1234.12 183.626 1234.32 182.816 1234.94 182.455L1244.74 176.738C1245.37 176.378 1246.16 176.581 1246.54 177.211C1246.9 177.841 1246.69 178.652 1246.07 179.012L1236.27 184.729C1236.04 184.841 1235.82 184.909 1235.59 184.909Z" fill="#F39800"/>
<path d="M1235.55 198.122C1235.33 198.122 1235.08 198.054 1234.86 197.919L1221.22 189.456C1220.62 189.073 1220.42 188.263 1220.8 187.655C1221.18 187.025 1221.99 186.845 1222.59 187.228L1236.22 195.691C1236.83 196.073 1237.03 196.884 1236.65 197.492C1236.43 197.897 1236 198.122 1235.55 198.122Z" fill="#F39800"/>
<path d="M1271.05 212.977C1270.33 212.977 1269.75 212.392 1269.75 211.671V162.693C1269.75 161.973 1270.33 161.387 1271.05 161.387C1271.76 161.387 1272.35 161.973 1272.35 162.693V211.671C1272.35 212.392 1271.76 212.977 1271.05 212.977Z" fill="#F39800"/>
<path d="M1271.05 174.87C1270.82 174.87 1270.6 174.802 1270.4 174.69L1260.6 168.973C1259.97 168.613 1259.77 167.802 1260.13 167.172C1260.48 166.542 1261.29 166.339 1261.92 166.699L1271.72 172.417C1272.35 172.777 1272.55 173.587 1272.19 174.217C1271.94 174.645 1271.49 174.87 1271.05 174.87Z" fill="#F39800"/>
<path d="M1271.07 188.105C1270.64 188.105 1270.19 187.88 1269.95 187.475C1269.57 186.867 1269.75 186.057 1270.37 185.674L1284.01 177.211C1284.61 176.828 1285.42 177.008 1285.8 177.639C1286.18 178.246 1286 179.057 1285.37 179.439L1271.74 187.902C1271.56 188.038 1271.31 188.105 1271.07 188.105Z" fill="#F39800"/>
<mask id="path-185-inside-1_2908_122" fill="white">
<rect x="791.352" y="199.826" width="111.165" height="11.944" rx="2"/>
</mask>
<rect x="791.352" y="199.826" width="111.165" height="11.944" rx="2" stroke="#1D6D6D" stroke-width="6" mask="url(#path-185-inside-1_2908_122)"/>
<path d="M799.586 153.105V200.512H807.82V151.105H801.586C800.481 151.105 799.586 152.001 799.586 153.105Z" stroke="#1D6D6D" stroke-width="3"/>
<path d="M886.049 151.105V200.512H894.283V153.105C894.283 152.001 893.388 151.105 892.283 151.105H886.049Z" stroke="#1D6D6D" stroke-width="3"/>
<path d="M807.82 150.419V116.736C807.82 115.632 808.716 114.736 809.82 114.736H821.544M871.638 114.736H884.048C885.152 114.736 886.048 115.632 886.048 116.736V150.419" stroke="#1D6D6D" stroke-width="3"/>
<path d="M840.071 125.715L846.933 123.657L853.795 125.715V118.853L858.599 112.677L852.423 110.619L846.933 104.443L842.13 110.619L835.268 112.677L840.071 118.853V125.715Z" stroke="#FFE36F" stroke-width="3" stroke-linejoin="round"/>
<path d="M831.837 118.167L827.033 120.226L827.719 112.678L822.916 106.502L830.464 104.443L834.582 98.2673L838.699 105.129" stroke="#FFE36F" stroke-width="3" stroke-linejoin="round"/>
<path d="M862.718 118.167L867.521 120.226L866.835 112.678L871.639 106.502L864.09 104.443L859.973 98.2673L855.856 105.129" stroke="#FFE36F" stroke-width="3" stroke-linejoin="round"/>
<path d="M842.131 98.2673L846.934 93.4639L851.052 98.2673" stroke="#FFE36F" stroke-width="3" stroke-linejoin="round"/>
<path d="M818.799 199.826V181.298C819.028 180.155 820.171 177.867 822.916 177.867C825.661 177.867 826.805 180.155 827.033 181.298V199.826" stroke="#1D6D6D" stroke-width="3"/>
<path d="M866.834 199.826V181.298C867.063 180.155 868.206 177.867 870.951 177.867C873.696 177.867 874.84 180.155 875.068 181.298V199.826" stroke="#1D6D6D" stroke-width="3"/>
<path d="M836.641 200.512V177.867C836.641 176.037 837.739 172.377 842.13 172.377C846.522 172.377 851.28 172.377 853.11 172.377C854.482 172.835 857.227 174.573 857.227 177.867C857.227 181.161 857.227 194.336 857.227 200.512" stroke="#1D6D6D" stroke-width="3"/>
<mask id="path-196-inside-2_2908_122" fill="white">
<rect x="817.428" y="147.674" width="13.7241" height="17.8414" rx="2"/>
</mask>
<rect x="817.428" y="147.674" width="13.7241" height="17.8414" rx="2" stroke="#1D6D6D" stroke-width="6" mask="url(#path-196-inside-2_2908_122)"/>
<mask id="path-197-inside-3_2908_122" fill="white">
<rect x="817.428" y="125.716" width="13.7241" height="17.8414" rx="2"/>
</mask>
<rect x="817.428" y="125.716" width="13.7241" height="17.8414" rx="2" stroke="#1D6D6D" stroke-width="6" mask="url(#path-197-inside-3_2908_122)"/>
<mask id="path-198-inside-4_2908_122" fill="white">
<rect x="839.387" y="147.674" width="13.7241" height="17.8414" rx="2"/>
</mask>
<rect x="839.387" y="147.674" width="13.7241" height="17.8414" rx="2" stroke="#1D6D6D" stroke-width="6" mask="url(#path-198-inside-4_2908_122)"/>
<mask id="path-199-inside-5_2908_122" fill="white">
<rect x="862.717" y="147.674" width="13.7241" height="17.8414" rx="2"/>
</mask>
<rect x="862.717" y="147.674" width="13.7241" height="17.8414" rx="2" stroke="#1D6D6D" stroke-width="6" mask="url(#path-199-inside-5_2908_122)"/>
<mask id="path-200-inside-6_2908_122" fill="white">
<rect x="862.717" y="125.716" width="13.7241" height="17.8414" rx="2"/>
</mask>
<rect x="862.717" y="125.716" width="13.7241" height="17.8414" rx="2" stroke="#1D6D6D" stroke-width="6" mask="url(#path-200-inside-6_2908_122)"/>
<path d="M841.443 132.578V142.185H852.423V132.578" stroke="#1D6D6D" stroke-width="3" stroke-linejoin="round"/>
<path d="M1214.42 167.562H1173.71V211.813H1230.82V183.447L1214.42 167.562Z" fill="#93BE9C"/>
<path d="M1108.49 212.769V140.169H1171.96V212.769H1108.49Z" fill="#0092A8"/>
<path d="M1172.08 212.631C1171.23 212.631 1170.54 211.939 1170.54 211.087V147.622H1099.39V211.087C1099.39 211.939 1098.7 212.631 1097.85 212.631C1097.01 212.631 1096.32 211.939 1096.32 211.087V146.052C1096.32 145.2 1097.01 144.508 1097.85 144.508H1172.11C1172.96 144.508 1173.65 145.2 1173.65 146.052V211.087C1173.62 211.939 1172.93 212.631 1172.08 212.631Z" fill="#1D6D6D"/>
<path d="M1145.67 154.331H1124.24C1123.39 154.331 1122.71 153.639 1122.71 152.787C1122.71 151.935 1123.39 151.243 1124.24 151.243H1145.67C1146.52 151.243 1147.21 151.935 1147.21 152.787C1147.21 153.639 1146.52 154.331 1145.67 154.331Z" fill="#1D6D6D"/>
<path d="M1145.67 160.693H1124.24C1123.39 160.693 1122.71 160.001 1122.71 159.149C1122.71 158.297 1123.39 157.605 1124.24 157.605H1145.67C1146.52 157.605 1147.21 158.297 1147.21 159.149C1147.21 160.001 1146.52 160.693 1145.67 160.693Z" fill="#1D6D6D"/>
<path d="M1145.67 167.056H1124.24C1123.39 167.056 1122.71 166.364 1122.71 165.512C1122.71 164.66 1123.39 163.968 1124.24 163.968H1145.67C1146.52 163.968 1147.21 164.66 1147.21 165.512C1147.21 166.364 1146.52 167.056 1145.67 167.056Z" fill="#1D6D6D"/>
<path d="M1145.67 173.392H1124.24C1123.39 173.392 1122.71 172.699 1122.71 171.848C1122.71 170.996 1123.39 170.304 1124.24 170.304H1145.67C1146.52 170.304 1147.21 170.996 1147.21 171.848C1147.21 172.699 1146.52 173.392 1145.67 173.392Z" fill="#1D6D6D"/>
<path d="M1145.67 179.754H1124.24C1123.39 179.754 1122.71 179.062 1122.71 178.21C1122.71 177.358 1123.39 176.666 1124.24 176.666H1145.67C1146.52 176.666 1147.21 177.358 1147.21 178.21C1147.21 179.062 1146.52 179.754 1145.67 179.754Z" fill="#1D6D6D"/>
<path d="M1145.67 186.09H1124.24C1123.39 186.09 1122.71 185.398 1122.71 184.546C1122.71 183.694 1123.39 183.002 1124.24 183.002H1145.67C1146.52 183.002 1147.21 183.694 1147.21 184.546C1147.21 185.398 1146.52 186.09 1145.67 186.09Z" fill="#1D6D6D"/>
<path d="M1124.24 212.631C1123.39 212.631 1122.71 211.939 1122.71 211.087V184.546C1122.71 183.694 1123.39 183.002 1124.24 183.002C1125.09 183.002 1125.78 183.694 1125.78 184.546V211.087C1125.78 211.939 1125.09 212.631 1124.24 212.631Z" fill="#1D6D6D"/>
<path d="M1145.67 212.737C1144.82 212.737 1144.13 212.045 1144.13 211.193V184.546C1144.13 183.694 1144.82 183.002 1145.67 183.002C1146.52 183.002 1147.21 183.694 1147.21 184.546V211.193C1147.21 212.045 1146.52 212.737 1145.67 212.737Z" fill="#1D6D6D"/>
<path d="M1106.95 161.333C1106.1 161.333 1105.41 160.64 1105.41 159.788V154.544C1105.41 153.692 1106.1 153 1106.95 153C1107.8 153 1108.49 153.692 1108.49 154.544V159.788C1108.49 160.64 1107.8 161.333 1106.95 161.333Z" fill="#1D6D6D"/>
<path d="M1117.03 161.333C1116.18 161.333 1115.49 160.64 1115.49 159.789V154.544C1115.49 153.692 1116.18 153 1117.03 153C1117.88 153 1118.57 153.692 1118.57 154.544V159.789C1118.57 160.64 1117.88 161.333 1117.03 161.333Z" fill="#1D6D6D"/>
<path d="M1106.95 175.894C1106.1 175.894 1105.41 175.202 1105.41 174.35V169.106C1105.41 168.254 1106.1 167.562 1106.95 167.562C1107.8 167.562 1108.49 168.254 1108.49 169.106V174.35C1108.49 175.202 1107.8 175.894 1106.95 175.894Z" fill="#1D6D6D"/>
<path d="M1117.03 175.894C1116.18 175.894 1115.49 175.202 1115.49 174.35V169.106C1115.49 168.254 1116.18 167.562 1117.03 167.562C1117.88 167.562 1118.57 168.254 1118.57 169.106V174.35C1118.57 175.202 1117.88 175.894 1117.03 175.894Z" fill="#D863A1"/>
<path d="M1153.84 161.333C1152.99 161.333 1152.3 160.64 1152.3 159.788V154.544C1152.3 153.692 1152.99 153 1153.84 153C1154.69 153 1155.38 153.692 1155.38 154.544V159.788C1155.38 160.64 1154.69 161.333 1153.84 161.333Z" fill="#1D6D6D"/>
<path d="M1163.91 161.333C1163.06 161.333 1162.38 160.64 1162.38 159.789V154.544C1162.38 153.692 1163.06 153 1163.91 153C1164.76 153 1165.45 153.692 1165.45 154.544V159.789C1165.45 160.64 1164.76 161.333 1163.91 161.333Z" fill="#1D6D6D"/>
<path d="M1153.84 175.894C1152.99 175.894 1152.3 175.202 1152.3 174.35V169.106C1152.3 168.254 1152.99 167.562 1153.84 167.562C1154.69 167.562 1155.38 168.254 1155.38 169.106V174.35C1155.38 175.202 1154.69 175.894 1153.84 175.894Z" fill="#1D6D6D"/>
<path d="M1163.91 175.894C1163.06 175.894 1162.38 175.202 1162.38 174.35V169.106C1162.38 168.254 1163.06 167.562 1163.91 167.562C1164.76 167.562 1165.45 168.254 1165.45 169.106V174.35C1165.45 175.202 1164.76 175.894 1163.91 175.894Z" fill="#D863A1"/>
<path d="M1134.96 211.965C1134.11 211.965 1133.42 211.273 1133.42 210.421V184.572C1133.42 183.72 1134.11 183.028 1134.96 183.028C1135.8 183.028 1136.49 183.72 1136.49 184.572V210.421C1136.49 211.273 1135.8 211.965 1134.96 211.965Z" fill="#1D6D6D"/>
<path d="M1114.83 212.524H1106.92C1106.08 212.524 1105.39 211.832 1105.39 210.98V183.96C1105.39 183.108 1106.08 182.416 1106.92 182.416H1114.83C1115.68 182.416 1116.37 183.108 1116.37 183.96V210.98C1116.39 211.832 1115.68 212.524 1114.83 212.524ZM1108.49 209.436H1113.29V185.53H1108.49V209.436Z" fill="#1D6D6D"/>
<path d="M1161.74 212.524H1153.84C1152.99 212.524 1152.3 211.832 1152.3 210.98V183.96C1152.3 183.108 1152.99 182.416 1153.84 182.416H1161.74C1162.59 182.416 1163.28 183.108 1163.28 183.96V210.98C1163.28 211.832 1162.59 212.524 1161.74 212.524ZM1155.38 209.436H1160.18V185.53H1155.38V209.436Z" fill="#1D6D6D"/>
<path d="M1206.05 214.54C1206.9 214.54 1207.59 213.871 1207.59 213.047V195.851H1216.69V213.047C1216.69 213.871 1217.38 214.54 1218.23 214.54C1219.07 214.54 1219.76 213.871 1219.76 213.047V194.358C1219.76 193.535 1219.07 192.865 1218.23 192.865H1206.03C1205.18 192.865 1204.49 193.535 1204.49 194.358V213.047C1204.49 213.871 1205.18 214.54 1206.05 214.54Z" fill="#1D6D6D"/>
<path d="M1227.16 214.54C1228.01 214.54 1228.7 213.871 1228.7 213.047V184.756C1228.7 184.318 1228.52 183.932 1228.2 183.649L1212.95 170.237C1212.66 169.98 1212.29 169.851 1211.92 169.851H1172.08C1171.24 169.851 1170.55 170.52 1170.55 171.344C1170.55 172.168 1171.24 172.837 1172.08 172.837H1211.33L1225.65 185.425V213.047C1225.63 213.871 1226.32 214.54 1227.16 214.54Z" fill="#1D6D6D"/>
<path d="M1193.75 187.155C1194.6 187.155 1195.29 186.463 1195.29 185.611V180.366C1195.29 179.515 1194.6 178.822 1193.75 178.822C1192.9 178.822 1192.21 179.515 1192.21 180.366V185.611C1192.21 186.463 1192.9 187.155 1193.75 187.155Z" fill="#1D6D6D"/>
<path d="M1183.67 187.155C1184.52 187.155 1185.21 186.463 1185.21 185.611V180.366C1185.21 179.515 1184.52 178.822 1183.67 178.822C1182.82 178.822 1182.13 179.515 1182.13 180.366V185.611C1182.13 186.463 1182.82 187.155 1183.67 187.155Z" fill="#1D6D6D"/>
<path d="M1206.5 188.831C1209.55 188.831 1212.05 186.329 1212.05 183.268C1212.05 180.206 1209.55 177.704 1206.5 177.704C1203.45 177.704 1200.96 180.206 1200.96 183.268C1200.94 186.329 1203.43 188.831 1206.5 188.831ZM1206.5 180.792C1207.86 180.792 1208.97 181.91 1208.97 183.268C1208.97 184.625 1207.86 185.743 1206.5 185.743C1205.15 185.743 1204.04 184.625 1204.04 183.268C1204.04 181.91 1205.15 180.792 1206.5 180.792Z" fill="#1D6D6D"/>
<path d="M1193.75 209.702C1194.6 209.702 1195.29 209.01 1195.29 208.158V193.011C1195.29 192.159 1194.6 191.467 1193.75 191.467C1192.9 191.467 1192.21 192.159 1192.21 193.011V208.158C1192.21 209.01 1192.9 209.702 1193.75 209.702Z" fill="#1D6D6D"/>
<path d="M1183.67 209.702C1184.52 209.702 1185.21 209.01 1185.21 208.158V193.011C1185.21 192.159 1184.52 191.467 1183.67 191.467C1182.82 191.467 1182.13 192.159 1182.13 193.011V208.158C1182.13 209.01 1182.82 209.702 1183.67 209.702Z" fill="#D863A1"/>
<path d="M1284.73 214.54H1.53723C0.689105 214.54 0 213.939 0 213.198C0 212.458 0.689105 211.857 1.53723 211.857H1284.73C1285.58 211.857 1286.27 212.458 1286.27 213.198C1286.27 213.939 1285.58 214.54 1284.73 214.54Z" fill="#1D6D6D"/>
</svg>
