<svg width="129" height="32" viewBox="0 0 129 32" fill="none" xmlns="http://www.w3.org/2000/svg">
<path d="M8.15377 19.1519V0L0 4.93019V14.3165V23.7028L8.15377 19.1519Z" fill="#5DC7DD"/>
<path d="M8.15377 0L0 4.93019L11.3774 11.1877L19.5311 6.44717L8.15377 0Z" fill="#009DBA" fill-opacity="0.5"/>
<path d="M12.3247 20.6687L12.3247 31.2876L20.4785 26.3574L20.4785 16.1178L12.3247 20.6687Z" fill="#5DC7DD"/>
<path d="M12.3247 31.2876L20.4785 26.3574L12.3247 21.6168L4.17097 26.3574L12.3247 31.2876Z" fill="#009DBA" fill-opacity="0.5"/>
<path d="M12.3247 20.6697L20.4785 16.1187L17.2549 14.6018L9.10116 19.3423L12.3247 20.6697Z" fill="#009DBA" fill-opacity="0.5"/>
<path d="M30.502 25.2411V5.97412H33.3313V25.2411H30.502Z" fill="#5DC7DD"/>
<path d="M46.9928 14.3457C46.0866 13.6285 45.0788 13.2699 43.9692 13.2699C42.6563 13.2699 41.5421 13.7342 40.6267 14.6629C39.7113 15.5915 39.2536 16.704 39.2536 18.0004C39.2536 18.3682 39.3183 18.7728 39.4478 19.2141L46.9928 14.3457ZM51.5697 17.7798C51.5605 19.9037 50.83 21.7196 49.3783 23.2275C47.9359 24.7262 46.1467 25.4755 44.0108 25.4755C41.9027 25.4755 40.1089 24.7537 38.6295 23.3102C37.1501 21.8667 36.4104 20.0968 36.4104 18.0004C36.4104 15.9225 37.1454 14.1434 38.6156 12.6631C40.0858 11.1828 41.8703 10.4426 43.9692 10.4426C45.5041 10.4426 46.9049 10.8656 48.1717 11.7114C49.4384 12.5573 50.3862 13.6928 51.0149 15.118L40.9873 21.6001C41.8842 22.3172 42.892 22.6758 44.0108 22.6758C45.3608 22.6758 46.475 22.1977 47.3534 21.2415C48.241 20.2761 48.6895 19.1222 48.6987 17.7798H51.5697Z" fill="#5DC7DD"/>
<path d="M65.7859 17.9729C65.7859 16.6948 65.319 15.5915 64.3851 14.6629C63.4513 13.7342 62.3371 13.2699 61.0426 13.2699C59.7481 13.2699 58.6339 13.7342 57.7 14.6629C56.7754 15.5823 56.3131 16.6856 56.3131 17.9729C56.3131 19.2693 56.7754 20.3772 57.7 21.2966C58.6247 22.2161 59.7388 22.6758 61.0426 22.6758C62.3463 22.6758 63.4605 22.2161 64.3851 21.2966C65.319 20.368 65.7859 19.2601 65.7859 17.9729ZM68.6292 23.6274C68.6292 25.6686 67.8802 27.4247 66.3823 28.8958C64.8937 30.3853 63.1138 31.1301 61.0426 31.1301C59.7573 31.1301 58.5368 30.8037 57.381 30.1509C56.8078 29.8291 56.29 29.4475 55.8277 29.0062C55.3653 28.574 54.9493 28.0821 54.5794 27.5305L56.9788 25.972C58.0144 27.5259 59.369 28.3028 61.0426 28.3028C62.448 28.3028 63.5715 27.8431 64.4129 26.9236C65.1988 26.0594 65.6473 24.9284 65.7582 23.5309C64.3528 24.8273 62.7023 25.4755 60.8068 25.4755C58.7726 25.4755 57.0389 24.7354 55.6057 23.2551C54.1818 21.7839 53.4698 20.0232 53.4698 17.9729C53.4698 15.9133 54.2142 14.1434 55.7028 12.6631C57.21 11.1828 58.9899 10.4426 61.0426 10.4426C63.1138 10.4426 64.8937 11.1828 66.3823 12.6631C67.8802 14.1434 68.6292 15.9133 68.6292 17.9729V23.6274Z" fill="#5DC7DD"/>
<path d="M78.3378 13.2699C77.2838 13.2699 76.3915 13.6055 75.661 14.2767C74.9213 14.9387 74.5515 15.78 74.5515 16.8006V25.2411H71.7082V16.8006C71.7082 15.0536 72.3693 13.5641 73.6916 12.3321C75.0323 11.0816 76.581 10.4518 78.3378 10.4426V13.2699Z" fill="#5DC7DD"/>
<path d="M91.9438 17.9729C91.9438 16.6948 91.4769 15.5915 90.543 14.6629C89.6091 13.7342 88.4949 13.2699 87.2005 13.2699C85.906 13.2699 84.7918 13.7342 83.8579 14.6629C82.9333 15.5823 82.471 16.6856 82.471 17.9729C82.471 19.2693 82.9333 20.3772 83.8579 21.2966C84.7825 22.2161 85.8967 22.6758 87.2005 22.6758C88.5042 22.6758 89.6184 22.2161 90.543 21.2966C91.4769 20.368 91.9438 19.2601 91.9438 17.9729ZM91.9438 25.2411V23.5033C90.5384 24.8181 88.8787 25.4755 86.9647 25.4755C84.9305 25.4755 83.1968 24.7354 81.7636 23.2551C80.3397 21.7839 79.6277 20.0232 79.6277 17.9729C79.6277 15.9041 80.3674 14.1342 81.8468 12.6631C83.3355 11.1828 85.12 10.4426 87.2005 10.4426C89.2809 10.4426 91.0654 11.1828 92.5541 12.6631C94.0427 14.1434 94.7871 15.9133 94.7871 17.9729V25.2411H91.9438Z" fill="#5DC7DD"/>
<path d="M107.811 25.2411V16.8006C107.811 15.8443 107.459 15.0168 106.756 14.3181C106.054 13.6193 105.222 13.2699 104.26 13.2699C103.298 13.2699 102.466 13.6193 101.763 14.3181C101.061 15.0168 100.709 15.8443 100.709 16.8006V25.2411H97.8661V16.8006C97.8661 15.118 98.5087 13.6377 99.794 12.3597C101.079 11.0816 102.568 10.4426 104.26 10.4426C105.943 10.4426 107.427 11.0816 108.712 12.3597C110.007 13.6469 110.654 15.1272 110.654 16.8006V25.2411H107.811Z" fill="#5DC7DD"/>
<path d="M125.453 17.9729C125.453 16.6948 124.986 15.5915 124.052 14.6629C123.118 13.7342 122.004 13.2699 120.709 13.2699C119.415 13.2699 118.3 13.7342 117.367 14.6629C116.442 15.5823 115.98 16.6856 115.98 17.9729C115.98 19.2693 116.442 20.3772 117.367 21.2966C118.291 22.2161 119.405 22.6758 120.709 22.6758C122.013 22.6758 123.127 22.2161 124.052 21.2966C124.986 20.368 125.453 19.2601 125.453 17.9729ZM128.296 17.9729C128.296 20.0324 127.551 21.8023 126.063 23.2826C124.574 24.7446 122.79 25.4755 120.709 25.4755C118.619 25.4755 116.835 24.7446 115.356 23.2826C113.876 21.8115 113.136 20.0416 113.136 17.9729C113.136 15.9225 113.848 14.1572 115.272 12.6769C116.696 11.1874 118.43 10.4426 120.473 10.4426C122.397 10.4426 124.056 11.1092 125.453 12.4424V5.97412H128.296V17.9729Z" fill="#5DC7DD"/>
</svg>
